<svg width="300" height="250" viewBox="0 0 300 250" fill="none" xmlns="http://www.w3.org/2000/svg">
<path fill-rule="evenodd" clip-rule="evenodd" d="M133.944 133C170.395 133 199.944 103.451 199.944 67C199.944 30.5492 170.395 1 133.944 1C97.4931 1 67.9438 30.5492 67.9438 67C67.9438 103.451 97.4931 133 133.944 133Z" fill="#ECEDEE"/>
<path fill-rule="evenodd" clip-rule="evenodd" d="M66.9438 67C66.9438 29.9969 96.9408 0 133.944 0C170.947 0 200.944 29.9969 200.944 67C200.944 104.003 170.947 134 133.944 134C96.9408 134 66.9438 104.003 66.9438 67ZM133.944 2C98.0453 2 68.9438 31.1015 68.9438 67C68.9438 102.899 98.0453 132 133.944 132C169.842 132 198.944 102.899 198.944 67C198.944 31.1015 169.842 2 133.944 2Z" fill="#DFE0E0"/>
<path fill-rule="evenodd" clip-rule="evenodd" d="M66.9438 67C66.9438 104.003 96.9408 134 133.944 134C170.947 134 200.944 104.003 200.944 67C200.944 29.9969 170.947 0 133.944 0C96.9408 0 66.9438 29.9969 66.9438 67ZM198.944 67C198.944 102.899 169.842 132 133.944 132C98.0453 132 68.9438 102.899 68.9438 67C68.9438 31.1015 98.0453 2 133.944 2C169.842 2 198.944 31.1015 198.944 67Z" fill="#C5C5C5"/>
<path fill-rule="evenodd" clip-rule="evenodd" d="M95.9438 67C95.9438 103.93 112.801 134 133.944 134C155.086 134 171.944 103.93 171.944 67C171.944 30.0703 155.086 0 133.944 0C112.801 0 95.9438 30.0703 95.9438 67ZM169.944 67C169.944 102.972 153.671 132 133.944 132C114.217 132 97.9438 102.972 97.9438 67C97.9438 31.0281 114.217 2 133.944 2C153.671 2 169.944 31.0281 169.944 67Z" fill="#C5C5C5"/>
<path d="M89.7905 117.754L91.3777 116.538L120.533 154.566L118.945 155.783L89.7905 117.754Z" fill="#C5C5C5"/>
<path d="M177.893 117.754L176.305 116.538L147.15 154.566L148.738 155.783L177.893 117.754Z" fill="#C5C5C5"/>
<path d="M120.728 131.729L122.652 131.185L128.999 153.607L127.075 154.152L120.728 131.729Z" fill="#C5C5C5"/>
<path d="M147.253 131.729L145.329 131.185L138.981 153.607L140.906 154.152L147.253 131.729Z" fill="#C5C5C5"/>
<path d="M117.944 157C117.944 154.791 119.735 153 121.944 153H146.944C149.153 153 150.944 154.791 150.944 157V173C150.944 175.209 149.153 177 146.944 177H121.944C119.735 177 117.944 175.209 117.944 173V157Z" fill="#ECEDEE"/>
<path fill-rule="evenodd" clip-rule="evenodd" d="M146.944 153H121.944C119.735 153 117.944 154.791 117.944 157V173C117.944 175.209 119.735 177 121.944 177H146.944C149.153 177 150.944 175.209 150.944 173V157C150.944 154.791 149.153 153 146.944 153ZM119.944 157C119.944 155.895 120.839 155 121.944 155H146.944C148.048 155 148.944 155.895 148.944 157V173C148.944 174.105 148.048 175 146.944 175H121.944C120.839 175 119.944 174.105 119.944 173V157Z" fill="#C5C5C5"/>
<path d="M1.56006 249.151C1.00777 249.151 0.560059 248.703 0.560059 248.151C0.560059 247.599 1.00777 247.151 1.56006 247.151H298.44C298.992 247.151 299.44 247.599 299.44 248.151C299.44 248.703 298.992 249.151 298.44 249.151H1.56006Z" fill="#C5C5C5"/>
<path d="M32.2218 248.924C31.7949 249.274 31.1648 249.212 30.8144 248.785C30.4641 248.358 30.5261 247.728 30.9531 247.378L108.524 183.72L166.75 228.983C167.186 229.322 167.265 229.95 166.926 230.386C166.587 230.822 165.959 230.901 165.523 230.562L108.558 186.28L32.2218 248.924Z" fill="#C5C5C5"/>
<path d="M149.151 217.323C148.738 217.69 148.106 217.652 147.739 217.24C147.372 216.827 147.41 216.195 147.823 215.828L166.096 199.587L224.411 245.295C224.846 245.636 224.922 246.264 224.582 246.699C224.241 247.133 223.612 247.21 223.178 246.869L166.176 202.191L149.151 217.323Z" fill="#C5C5C5"/>
<path d="M210.767 164.045C211.294 163.881 211.854 164.176 212.018 164.703C212.182 165.23 211.887 165.791 211.36 165.955C205.854 167.666 203.151 170.735 203.032 175.28C203.007 176.233 201.79 176.614 201.226 175.845C197.626 170.938 192.36 170.186 188.468 172.581C187.998 172.87 187.382 172.724 187.092 172.253C186.803 171.783 186.95 171.167 187.42 170.878C191.624 168.29 197.154 168.718 201.312 172.876C202.24 168.669 205.437 165.701 210.767 164.045Z" fill="#DFE0E0"/>
<path d="M240.56 152.427C241.035 152.71 241.191 153.323 240.909 153.798C240.626 154.273 240.013 154.429 239.538 154.146C234.582 151.2 230.492 151.245 227.035 154.197C226.311 154.816 225.213 154.167 225.407 153.234C226.645 147.274 223.68 142.858 219.296 141.568C218.766 141.412 218.463 140.857 218.619 140.327C218.775 139.797 219.331 139.494 219.86 139.65C224.596 141.042 227.979 145.438 227.671 151.311C231.419 149.185 235.763 149.575 240.56 152.427Z" fill="#DFE0E0"/>
<path fill-rule="evenodd" clip-rule="evenodd" d="M282.944 108.5C282.944 103.253 278.691 99 273.444 99C272.921 99 272.404 99.0423 271.896 99.1257C271.928 98.7529 271.944 98.3774 271.944 98C271.944 90.8203 266.124 85 258.944 85C251.764 85 245.944 90.8203 245.944 98C245.944 98.576 245.981 99.1471 246.056 99.7107C244.925 99.2458 243.703 99 242.444 99C237.197 99 232.944 103.253 232.944 108.5C232.944 113.747 237.197 118 242.444 118H273.444C278.691 118 282.944 113.747 282.944 108.5ZM280.944 108.5C280.944 112.642 277.586 116 273.444 116H242.444C238.302 116 234.944 112.642 234.944 108.5C234.944 104.358 238.302 101 242.444 101C244.081 101 245.637 101.525 246.921 102.482C247.702 103.064 248.769 102.301 248.471 101.374C248.123 100.294 247.944 99.1597 247.944 98C247.944 91.9249 252.869 87 258.944 87C265.019 87 269.944 91.9249 269.944 98C269.944 98.7638 269.866 99.5169 269.713 100.252C269.556 101.01 270.283 101.652 271.016 101.401C271.79 101.137 272.607 101 273.444 101C277.586 101 280.944 104.358 280.944 108.5Z" fill="#C5C5C5"/>
<path fill-rule="evenodd" clip-rule="evenodd" d="M72.9438 149.5C72.9438 144.253 68.6906 140 63.4438 140C62.9211 140 62.4038 140.042 61.8957 140.126C61.9277 139.753 61.9438 139.377 61.9438 139C61.9438 131.82 56.1236 126 48.9438 126C41.7641 126 35.9438 131.82 35.9438 139C35.9438 139.576 35.9814 140.147 36.0555 140.711C34.925 140.246 33.7025 140 32.4438 140C27.1971 140 22.9438 144.253 22.9438 149.5C22.9438 154.747 27.1971 159 32.4438 159H63.4438C68.6906 159 72.9438 154.747 72.9438 149.5ZM70.9438 149.5C70.9438 153.642 67.586 157 63.4438 157H32.4438C28.3017 157 24.9438 153.642 24.9438 149.5C24.9438 145.358 28.3017 142 32.4438 142C34.0813 142 35.6367 142.525 36.9212 143.482C37.7018 144.064 38.7691 143.301 38.4708 142.374C38.123 141.294 37.9438 140.16 37.9438 139C37.9438 132.925 42.8687 128 48.9438 128C55.019 128 59.9438 132.925 59.9438 139C59.9438 139.764 59.8662 140.517 59.7134 141.252C59.5557 142.01 60.283 142.652 61.016 142.401C61.7901 142.137 62.607 142 63.4438 142C67.586 142 70.9438 145.358 70.9438 149.5Z" fill="#C5C5C5"/>
</svg>
